<svg xmlns="http://www.w3.org/2000/svg" version="1.1" style="" viewBox="17.98 72.71 197.25 90.38"><path fill="#00558d" d="M17.978515625,97.216796875q0-2.880859375,3.0517578125-5.4931640625t7.2021484375-4.5654296875t8.349609375-3.1005859375t6.494140625-1.1474609375q2.197265625,0,4.19921875,0.537109375t3.564453125,1.7333984375t2.5146484375,2.9541015625t0.9521484375,4.150390625q0,3.515625-1.806640625,7.373046875t-4.443359375,7.5439453125t-5.5419921875,7.080078125t-5.0048828125,5.9326171875q2.490234375,0.5859375,4.8828125,1.7333984375t4.248046875,2.9052734375t3.0029296875,4.00390625t1.1474609375,5.029296875q0,3.61328125-1.4892578125,7.421875t-4.1015625,6.9091796875t-6.005859375,5.1025390625t-7.2998046875,2.001953125q-1.708984375,0-3.1982421875-0.3662109375t-2.3193359375-0.8544921875q-1.123046875-0.5859375-1.904296875-1.4892578125t-0.78125-2.3193359375q0-1.708984375,1.2451171875-2.1484375t2.6611328125-0.439453125q0.390625,0,1.1474609375,0.1953125t1.513671875,0.48828125t1.3427734375,0.7080078125t0.68359375,0.9033203125q1.806640625-1.123046875,3.369140625-2.9541015625t2.7099609375-3.9794921875t1.8310546875-4.4677734375t0.68359375-4.4189453125q0-2.978515625-1.0986328125-4.931640625t-2.685546875-3.1005859375t-3.4912109375-1.708984375t-3.515625-0.9521484375t-2.7099609375-0.830078125t-1.0986328125-1.26953125q0-0.1953125,0.244140625-0.5859375q1.513671875-1.513671875,3.5400390625-3.662109375t4.1748046875-4.6875t4.248046875-5.2978515625t3.759765625-5.517578125t2.7099609375-5.3466796875t1.0498046875-4.6875q0-1.806640625-0.6591796875-3.515625t-2.4658203125-1.708984375q-1.416015625,0-4.443359375,1.171875t-6.0791015625,2.8564453125t-5.4443359375,3.6376953125t-2.392578125,3.466796875q0.48828125,0.1953125,0.927734375,0.5859375t0.439453125,0.927734375q0,0.390625-0.390625,0.68359375t-0.9033203125,0.439453125t-1.0009765625,0.1953125t-0.78125,0.048828125q-0.68359375,0-1.4892578125-0.1953125t-1.5625-0.5859375t-1.26953125-1.0009765625t-0.5126953125-1.3916015625z M64.30029296875,82.080078125q0-3.41796875,1.171875-4.58984375t3.271484375-1.171875q0.5859375,0,1.2451171875,0.09765625t1.2451171875,0.29296875q3.271484375-0.634765625,6.201171875-0.634765625q4.736328125,0,8.59375,1.66015625q6.201171875,2.63671875,10.25390625,7.8125t5.95703125,12.158203125t1.904296875,14.306640625q0,4.1015625-0.5615234375,8.544921875t-2.1728515625,8.251953125q-1.416015625,3.41796875-3.90625,7.1533203125t-5.6396484375,7.080078125t-6.787109375,5.859375t-7.3486328125,3.3935546875l0,0.390625q0,0.9765625-0.5126953125,1.5869140625t-1.2451171875,0.927734375t-1.6845703125,0.4150390625t-1.7822265625,0.09765625q-0.48828125,0-1.3916015625-0.09765625t-1.7578125-0.3662109375t-1.4404296875-0.7080078125t-0.5859375-1.220703125q0-8.88671875-0.4638671875-17.7978515625t-1.0498046875-17.822265625t-1.0498046875-17.7978515625t-0.4638671875-17.822265625z M73.52880859375,79.58984375q0.48828125,4.6875,0.634765625,9.3505859375t0.439453125,9.3505859375q0.78125,12.109375,1.806640625,24.0966796875t1.220703125,24.0966796875q4.6875-3.076171875,8.0322265625-7.03125t5.4931640625-8.59375t3.1494140625-9.7412109375t1.0009765625-10.5224609375q0-3.90625-0.68359375-8.59375t-2.34375-9.033203125t-4.4677734375-7.861328125t-7.0068359375-5.029296875q-0.87890625-0.29296875-2.1240234375-0.48828125t-3.9794921875-0.1953125q-0.29296875,0-0.5859375,0.09765625t-0.5859375,0.09765625z M114.0888671875,149.31640625q0.1953125-10.205078125,0.8544921875-20.361328125t1.1474609375-20.361328125q0.09765625-3.90625,0.09765625-7.1044921875t0.3173828125-5.5419921875t1.171875-3.5888671875t2.8564453125-1.2451171875q1.708984375,0,2.587890625,0.48828125t1.3427734375,1.2451171875t0.5615234375,1.708984375t0.09765625,1.9287109375q0,1.416015625,0.09765625,2.8076171875t0.09765625,2.8076171875q0,10.302734375-0.5615234375,20.556640625t-0.5615234375,20.654296875q0,1.513671875,0.048828125,3.0517578125t0.048828125,3.1494140625q0,0.5859375-0.537109375,0.9765625t-1.3427734375,0.6591796875t-1.708984375,0.3662109375t-1.4892578125,0.09765625q-0.68359375,0-1.5380859375-0.09765625t-1.66015625-0.4150390625t-1.3671875-0.7568359375t-0.5615234375-1.025390625z M116.8232421875,83.10546875q0-0.48828125,0.146484375-1.0986328125t0.341796875-1.0986328125q0.09765625-0.5859375,0.29296875-2.001953125t0.7080078125-2.7587890625t1.416015625-2.392578125t2.5634765625-1.0498046875l0.927734375,0q0.78125,0.1953125,1.5869140625,0.48828125t0.8056640625,1.416015625q0,0.48828125-0.048828125,0.927734375t-0.146484375,0.9765625q-0.390625,2.880859375-0.7568359375,4.541015625t-0.8544921875,2.5146484375t-1.2451171875,1.0986328125t-1.9287109375,0.341796875q-0.390625,0-1.0498046875-0.048828125t-1.26953125-0.244140625t-1.0498046875-0.6103515625t-0.439453125-1.0009765625z M135.70361328125,141.796875q0.29296875-7.91015625,0.5126953125-16.2109375t0.4150390625-16.3818359375t0.29296875-15.6982421875t0.09765625-14.208984375q0.09765625-1.318359375,2.294921875-2.099609375t5.2490234375-1.1474609375t6.4453125-0.4638671875t6.0302734375-0.09765625q0.5859375,0,2.44140625-0.048828125l0.927734375,0q1.416015625,0,2.978515625,0.09765625q2.05078125,0.146484375,3.5888671875,0.634765625t1.5380859375,1.416015625q0,0.68359375-0.537109375,1.0986328125t-1.2451171875,0.6103515625t-1.46484375,0.244140625t-1.0498046875,0.048828125q-4.58984375,0-9.08203125-0.146484375q-1.220703125-0.048828125-2.490234375-0.048828125q-3.3203125,0-6.73828125,0.29296875q0.1953125,0.5859375,0.3173828125,3.5400390625t0.1220703125,6.6650390625t-0.048828125,7.2509765625t0,5.4443359375l0,12.6953125q1.513671875-0.09765625,2.978515625-0.09765625l2.9296875,0l1.953125-0.09765625q0.9765625-0.048828125,2.05078125-0.048828125q1.123046875,0,2.294921875,0.048828125q2.34375,0.09765625,4.2724609375,0.5615234375t1.9287109375,1.6357421875q0,0.87890625-0.732421875,1.2939453125t-1.6357421875,0.6103515625t-1.708984375,0.1953125l-0.9033203125,0q-2.783203125,0-5.7861328125-0.1953125t-5.5908203125-0.1953125q-0.48828125,0.1953125-1.0498046875,0.146484375t-1.0009765625-0.048828125q0,7.32421875-0.146484375,14.5751953125t-0.341796875,14.4287109375q0,1.416015625-1.7822265625,1.85546875t-3.3935546875,0.439453125q-1.806640625,0-2.8564453125-0.439453125t-1.4892578125-1.4404296875t-0.537109375-2.6611328125q-0.048828125-0.927734375-0.09765625-2.05078125q0-0.927734375,0.048828125-2.001953125z M175.62890625,103.076171875q0-1.904296875,0.1220703125-5.5908203125t0.3662109375-7.6904296875t0.634765625-7.4951171875t1.123046875-5.0048828125q0.390625-0.78125,1.1962890625-1.0498046875t1.5869140625-0.2685546875q0.48828125,0,1.6357421875,0.2685546875t1.1474609375,1.0498046875q0,1.220703125-0.29296875,4.6142578125t-0.537109375,7.7880859375t-0.341796875,9.130859375l0,2.099609375q0,3.564453125,0.244140625,6.689453125q0.341796875,4.00390625,1.2939453125,6.591796875t2.8564453125,2.587890625q2.587890625,0,4.833984375-1.5380859375t4.1015625-4.00390625t3.3447265625-5.517578125t2.5390625-6.005859375t1.7578125-5.4443359375t1.0009765625-3.90625q0.29296875-1.611328125,0.5126953125-4.296875t0.7080078125-5.2734375t1.7333984375-4.4921875t3.6376953125-1.904296875q1.416015625,0,2.7099609375,0.48828125t1.6845703125,2.099609375q-0.78125,2.978515625-1.318359375,8.2763671875t-0.8544921875,11.1083984375t-0.4638671875,11.2548828125t-0.146484375,8.8623046875q0,3.80859375,0.09765625,9.3017578125t0.341796875,11.3525390625t0.5615234375,11.4013671875t0.7080078125,9.2529296875q0.390625,0.78125,0.390625,1.806640625q0,1.220703125-0.48828125,1.904296875t-1.3427734375,1.025390625t-1.85546875,0.439453125t-1.9287109375,0.09765625q-1.416015625,0-3.1494140625-0.48828125t-2.1240234375-2.001953125q-0.48828125-1.806640625-0.8056640625-4.7607421875t-0.4638671875-6.4453125t-0.244140625-7.2998046875t-0.09765625-7.2998046875t0.048828125-6.494140625t0.048828125-4.9072265625q0-3.7109375,0.146484375-7.2998046875t0.341796875-7.2998046875q-1.220703125,2.490234375-2.8564453125,5.0537109375t-3.7353515625,4.6630859375t-4.6875,3.4423828125t-5.615234375,1.3427734375q-3.90625,0-5.95703125-2.099609375t-2.978515625-5.2001953125t-1.0498046875-6.591796875t-0.1220703125-6.3232421875z"/><path fill="#" d=""/></svg>